<svg id="svg" xmlns="http://www.w3.org/2000/svg" width="400" height="221.3756613756614" viewBox="0 0 400 221.3756613756614">
  <g id="svgg">
    <path
      id="path0"
      d="M22.137 16.902 C 19.293 18.154,17.024 21.255,16.695 24.339 C 16.521 25.968,16.511 66.236,16.673 113.822 L 16.967 200.343 17.886 201.653 C 19.071 203.342,19.732 203.888,21.799 204.882 C 23.714 205.802,131.601 206.213,133.233 205.306 C 133.638 205.081,134.825 204.526,135.873 204.072 C 136.921 203.619,138.183 202.802,138.677 202.259 C 140.869 199.849,140.732 205.536,140.854 111.512 L 140.968 23.871 139.370 21.583 C 138.491 20.324,136.999 18.752,136.055 18.089 L 134.338 16.882 78.703 16.687 C 43.273 16.562,22.730 16.640,22.137 16.902 M132.456 21.717 C 135.657 22.831,135.384 14.664,135.419 110.530 C 135.451 200.517,135.488 198.506,133.778 199.563 C 133.550 199.704,108.739 199.809,78.642 199.796 L 23.919 199.773 22.859 198.713 L 21.799 197.653 21.690 111.112 L 21.581 24.570 22.819 23.185 L 24.057 21.799 71.605 21.584 C 97.757 21.465,121.820 21.333,125.079 21.290 C 128.781 21.241,131.550 21.401,132.456 21.717 M30.856 28.479 C 24.919 32.465,29.896 42.362,36.456 39.614 C 42.280 37.174,41.939 29.254,35.956 27.971 C 32.981 27.333,32.490 27.382,30.856 28.479 M120.423 27.919 C 117.357 29.196,116.044 33.246,117.614 36.586 C 120.413 42.539,129.228 40.672,129.825 34.000 C 130.204 29.762,124.640 26.164,120.423 27.919 M74.074 37.183 C 74.074 37.391,73.169 37.808,72.063 38.109 C 67.794 39.271,63.345 43.590,61.832 48.042 C 61.515 48.974,61.073 49.854,60.848 50.000 C 60.174 50.436,59.974 55.447,60.496 58.809 C 61.496 65.252,65.362 70.449,70.583 72.369 C 71.921 72.862,73.668 73.566,74.465 73.935 C 76.285 74.779,82.695 74.528,84.266 73.552 C 84.830 73.202,86.411 72.464,87.781 71.912 C 90.761 70.711,94.569 66.822,95.254 64.279 C 95.491 63.400,95.870 62.567,96.096 62.427 C 96.323 62.287,96.508 61.719,96.508 61.164 C 96.508 60.609,96.698 60.038,96.931 59.894 C 97.499 59.543,97.470 53.926,96.885 51.132 C 95.151 42.845,87.919 37.152,78.836 36.923 C 76.217 36.858,74.074 36.974,74.074 37.183 M84.526 44.063 C 96.421 49.768,92.136 68.371,78.889 68.539 C 73.766 68.603,69.427 65.967,67.194 61.432 C 61.540 49.950,72.953 38.512,84.526 44.063 M105.623 66.990 C 102.436 70.178,104.209 74.441,108.880 74.818 C 111.728 75.047,113.408 73.581,113.747 70.569 C 114.228 66.307,108.729 63.885,105.623 66.990 M120.438 66.990 C 118.418 69.010,118.312 71.617,120.169 73.605 C 121.841 75.395,126.122 75.273,127.622 73.393 C 131.326 68.747,124.640 62.789,120.438 66.990 M37.466 67.363 C 32.259 70.865,31.446 78.470,35.834 82.618 C 38.649 85.279,43.892 86.331,46.015 84.662 C 46.603 84.199,47.239 83.917,47.430 84.035 C 47.620 84.152,48.311 83.531,48.965 82.653 C 49.619 81.776,50.393 80.906,50.685 80.720 C 50.978 80.534,51.217 79.926,51.217 79.369 C 51.217 78.812,51.417 78.233,51.662 78.082 C 52.893 77.321,51.608 71.839,49.659 69.538 C 46.621 65.950,41.045 64.956,37.466 67.363 M248.042 69.443 C 248.042 69.690,247.869 69.784,247.657 69.653 C 246.117 68.701,242.264 71.904,240.554 75.557 L 239.365 78.095 239.234 92.298 C 239.085 108.516,239.267 109.628,242.676 113.326 C 247.311 118.355,257.865 117.998,261.351 112.695 C 263.333 109.680,263.478 108.308,263.485 92.487 L 263.492 77.672 261.955 75.308 C 261.109 74.008,259.871 72.534,259.204 72.032 C 258.536 71.531,257.772 70.939,257.505 70.718 C 257.239 70.497,256.906 70.431,256.765 70.572 C 256.623 70.713,256.508 70.607,256.508 70.335 C 256.508 70.063,256.138 69.841,255.686 69.841 C 255.234 69.841,254.747 69.651,254.603 69.418 C 254.246 68.840,248.042 68.863,248.042 69.443 M337.566 69.414 C 334.261 69.904,331.677 71.685,331.090 73.878 C 330.825 74.869,330.269 76.019,329.855 76.434 C 329.163 77.125,329.092 78.469,328.994 92.668 L 328.888 108.148 330.476 111.323 C 333.883 118.134,344.275 119.500,349.414 113.811 C 350.231 112.907,350.921 111.929,350.948 111.639 C 351.115 109.836,351.845 107.078,352.217 106.849 C 352.424 106.721,352.593 105.390,352.593 103.890 L 352.593 101.164 348.783 101.164 L 344.974 101.164 344.974 103.721 C 344.974 110.024,340.569 112.405,337.534 107.743 C 336.764 106.560,336.727 105.717,336.853 92.293 L 336.987 78.095 338.085 77.105 C 341.010 74.467,344.671 76.826,344.907 81.501 L 345.068 84.688 348.724 84.566 L 352.381 84.444 352.510 81.937 C 352.963 73.141,346.869 68.035,337.566 69.414 M156.190 93.129 L 156.190 116.418 166.032 116.304 L 175.873 116.190 175.996 112.698 L 176.119 109.206 169.964 109.206 L 163.810 109.206 163.810 102.871 L 163.810 96.536 168.571 96.416 L 173.333 96.296 173.333 92.910 L 173.333 89.524 168.571 89.404 L 163.810 89.284 163.810 82.949 L 163.810 76.614 169.735 76.614 L 175.661 76.614 175.661 73.228 L 175.661 69.841 165.926 69.841 L 156.190 69.841 156.190 93.129 M180.923 70.401 C 180.804 70.709,180.763 79.614,180.830 90.190 L 180.952 109.418 182.770 112.072 C 185.987 116.767,190.398 117.815,197.813 115.644 C 204.333 113.734,204.558 112.749,204.362 86.984 L 204.233 70.053 200.529 69.931 L 196.825 69.808 196.720 83.687 C 196.661 91.321,196.614 99.859,196.614 102.662 C 196.614 109.412,196.252 110.053,192.439 110.053 C 188.388 110.053,188.594 111.150,188.449 88.783 L 188.327 69.841 184.732 69.841 C 182.141 69.841,181.077 69.998,180.923 70.401 M210.370 93.122 L 210.370 116.402 214.180 116.402 L 217.989 116.402 217.989 106.854 L 217.989 97.306 219.767 97.436 L 221.545 97.566 223.353 103.069 C 224.347 106.095,225.166 109.102,225.173 109.750 C 225.180 110.399,225.453 111.351,225.779 111.867 C 226.106 112.382,226.504 113.614,226.663 114.603 L 226.953 116.402 230.937 116.402 C 234.586 116.402,234.921 116.334,234.921 115.588 C 234.921 114.644,230.552 101.890,229.690 100.317 C 229.371 99.735,228.980 98.688,228.820 97.989 C 228.661 97.291,228.431 96.381,228.308 95.968 C 228.146 95.424,228.415 95.099,229.280 94.791 C 234.634 92.886,235.808 78.875,231.065 73.487 C 228.568 70.651,225.261 69.841,216.165 69.841 L 210.370 69.841 210.370 93.122 M269.911 82.186 C 269.757 89.015,269.631 99.508,269.630 105.503 L 269.630 116.402 273.439 116.402 L 277.249 116.402 277.249 106.878 L 277.249 97.354 278.260 97.354 C 279.829 97.354,281.080 98.663,281.712 100.966 C 282.029 102.123,282.575 103.831,282.925 104.762 C 283.275 105.693,283.573 107.026,283.589 107.725 C 283.604 108.423,283.963 109.759,284.388 110.692 C 284.812 111.626,285.294 113.110,285.459 113.992 C 285.832 115.977,286.781 116.402,290.840 116.402 L 293.795 116.402 293.519 114.815 C 293.209 113.026,291.060 106.326,290.166 104.360 C 289.844 103.650,289.115 101.735,288.547 100.106 C 287.979 98.476,287.389 96.846,287.235 96.484 C 287.039 96.020,287.520 95.420,288.859 94.458 C 290.647 93.174,291.334 92.285,292.506 89.735 C 293.374 87.847,293.487 80.061,292.680 77.663 C 290.747 71.915,287.166 70.195,276.577 69.929 L 270.191 69.768 269.911 82.186 M306.242 70.266 C 306.098 70.500,305.891 71.868,305.782 73.307 C 305.673 74.745,305.403 76.139,305.183 76.405 C 304.782 76.888,303.978 80.350,302.874 86.349 C 302.553 88.095,301.421 93.810,300.360 99.048 C 299.299 104.286,298.322 109.714,298.190 111.111 C 298.057 112.508,297.854 114.270,297.738 115.026 L 297.528 116.402 301.304 116.402 L 305.079 116.402 305.344 115.079 C 305.489 114.352,305.608 112.920,305.608 111.898 C 305.608 110.876,305.845 109.281,306.135 108.353 L 306.661 106.667 311.426 106.667 C 314.046 106.667,316.194 106.810,316.199 106.984 C 316.203 107.159,316.483 109.206,316.820 111.534 C 317.158 113.862,317.440 115.910,317.447 116.085 C 317.454 116.259,319.175 116.402,321.270 116.402 L 325.079 116.402 325.066 115.026 C 325.058 114.270,324.773 113.281,324.431 112.829 C 324.089 112.377,323.809 111.234,323.808 110.289 C 323.807 108.752,322.703 102.546,321.620 97.989 C 321.399 97.058,321.051 95.153,320.848 93.757 C 320.645 92.360,320.260 90.360,319.992 89.312 C 319.725 88.265,319.317 86.360,319.086 85.079 C 318.855 83.799,318.312 81.132,317.880 79.153 C 317.448 77.175,316.974 74.794,316.826 73.862 C 316.678 72.931,316.459 71.646,316.340 71.005 L 316.123 69.841 311.314 69.841 C 308.552 69.841,306.393 70.022,306.242 70.266 M358.095 93.122 L 358.095 116.402 361.905 116.402 L 365.714 116.402 365.714 109.769 C 365.714 103.229,367.132 97.354,368.709 97.354 C 369.092 97.354,370.794 101.722,370.794 102.704 C 370.794 103.068,371.550 104.957,372.474 106.902 C 373.398 108.847,374.273 110.971,374.419 111.622 C 374.564 112.272,374.977 113.614,375.336 114.603 L 375.988 116.402 379.960 116.402 L 383.931 116.402 383.672 115.238 C 383.529 114.598,382.954 113.103,382.394 111.915 C 381.834 110.728,381.375 109.300,381.374 108.741 C 381.373 108.182,380.992 107.101,380.528 106.339 C 380.063 105.577,379.683 104.616,379.683 104.205 C 379.683 103.793,378.806 101.179,377.735 98.395 C 373.362 87.027,373.386 87.637,377.029 80.847 C 380.125 75.076,381.410 72.440,381.826 71.005 L 382.163 69.841 378.277 69.848 L 374.392 69.856 373.367 72.282 C 372.804 73.617,371.502 76.488,370.474 78.663 C 369.445 80.838,368.149 83.871,367.593 85.403 C 366.021 89.739,365.622 89.714,365.778 85.291 C 365.851 83.196,365.867 78.862,365.813 75.661 L 365.714 69.841 361.905 69.841 L 358.095 69.841 358.095 93.122 M44.879 72.241 C 45.455 72.629,45.990 72.995,46.069 73.054 C 46.147 73.112,46.373 73.876,46.570 74.750 C 47.647 79.525,40.934 82.145,38.698 77.822 C 38.003 76.478,37.896 74.497,38.519 74.497 C 38.751 74.497,38.942 74.127,38.942 73.675 C 38.942 71.756,42.786 70.828,44.879 72.241 M254.408 76.631 C 256.033 78.255,256.120 79.251,255.860 93.290 C 255.537 110.771,255.720 110.053,251.590 110.053 C 246.929 110.053,246.775 109.511,246.652 92.698 C 246.554 79.235,246.803 77.624,249.203 76.226 C 250.530 75.453,253.459 75.681,254.408 76.631 M222.326 76.885 C 223.988 77.160,226.252 78.878,225.837 79.549 C 225.704 79.765,225.788 80.061,226.025 80.207 C 226.261 80.354,226.454 82.033,226.452 83.940 C 226.448 89.226,224.963 90.962,220.423 90.990 L 217.989 91.005 217.989 83.810 L 217.989 76.614 219.365 76.618 C 220.122 76.621,221.454 76.741,222.326 76.885 M282.621 77.325 C 284.891 77.637,285.714 79.399,285.714 83.947 C 285.714 88.727,283.733 90.962,279.471 90.990 L 277.249 91.005 277.249 83.755 L 277.249 76.506 279.048 76.794 C 280.037 76.952,281.645 77.191,282.621 77.325 M311.990 81.530 C 312.227 82.900,312.597 85.354,312.812 86.984 C 313.027 88.614,313.396 91.090,313.632 92.487 C 313.867 93.884,314.184 96.217,314.337 97.672 L 314.613 100.317 311.123 100.317 L 307.632 100.317 307.835 98.942 C 307.947 98.185,308.334 96.042,308.694 94.180 C 309.055 92.317,309.461 89.556,309.597 88.042 C 309.804 85.741,310.244 82.968,310.622 81.589 C 310.669 81.416,310.824 80.695,310.965 79.987 C 311.305 78.291,311.475 78.547,311.990 81.530 M106.376 80.870 C 101.978 83.986,103.900 89.312,109.424 89.312 C 112.167 89.312,114.487 86.367,113.877 83.661 C 113.005 79.797,109.652 78.549,106.376 80.870 M121.381 80.215 C 117.021 82.671,118.954 89.312,124.028 89.312 C 126.536 89.312,128.677 86.797,128.677 83.853 C 128.677 80.797,124.259 78.594,121.381 80.215 M74.921 87.328 C 74.921 87.519,74.545 87.557,74.086 87.411 C 73.003 87.067,69.841 88.475,67.238 90.460 C 58.632 97.023,57.758 111.768,65.533 119.219 C 70.986 124.444,81.329 126.047,86.809 122.516 C 88.054 121.714,89.299 121.058,89.576 121.058 C 90.266 121.058,93.596 117.296,94.476 115.520 C 97.848 108.725,98.091 105.648,95.858 97.991 C 94.960 94.914,91.186 90.910,86.777 88.357 L 84.029 86.766 79.475 86.873 C 76.970 86.932,74.921 87.136,74.921 87.328 M83.570 93.389 C 93.268 96.694,94.144 112.571,84.883 117.196 C 71.442 123.909,59.013 106.891,69.614 96.290 C 72.432 93.471,79.500 92.003,83.570 93.389 M105.441 95.888 C 103.553 98.037,103.598 100.296,105.566 102.265 C 108.537 105.236,113.180 103.700,113.735 99.562 C 114.354 94.947,108.531 92.368,105.441 95.888 M121.150 95.052 C 118.408 96.973,118.291 99.839,120.854 102.295 C 123.444 104.776,124.999 104.810,127.147 102.433 C 131.027 98.138,125.847 91.762,121.150 95.052 M38.095 96.786 C 30.913 100.998,31.029 110.271,38.307 113.703 C 44.874 116.799,52.063 111.945,52.063 104.415 C 52.063 97.692,44.031 93.305,38.095 96.786 M45.609 102.116 C 49.044 105.796,43.777 111.504,39.969 108.229 C 38.371 106.854,38.002 103.373,39.316 102.060 C 40.624 100.751,44.366 100.785,45.609 102.116 M106.842 109.447 C 104.231 110.735,103.366 114.586,105.199 116.765 C 107.412 119.395,110.495 119.448,112.601 116.892 C 116.112 112.634,111.766 107.017,106.842 109.447 M121.220 109.877 C 117.731 111.598,118.840 118.528,122.603 118.516 C 125.623 118.507,128.677 116.061,128.677 113.651 C 128.677 110.403,124.470 108.273,121.220 109.877 M120.615 125.185 C 116.831 128.567,121.529 135.687,125.974 133.308 C 129.764 131.279,129.390 124.952,125.441 124.300 C 122.689 123.845,121.967 123.978,120.615 125.185 M38.307 125.256 C 32.650 127.906,31.064 135.620,35.206 140.337 C 39.841 145.616,48.661 144.058,51.407 137.474 C 54.635 129.734,45.979 121.662,38.307 125.256 M105.439 125.546 C 102.465 129.326,105.017 133.599,109.857 132.942 C 113.755 132.413,115.274 128.886,112.987 125.674 C 111.718 123.892,106.805 123.809,105.439 125.546 M44.741 130.899 C 46.282 132.592,46.632 133.642,46.190 135.244 C 45.966 136.056,45.905 136.720,46.054 136.720 C 46.204 136.720,45.885 137.028,45.347 137.405 C 42.788 139.198,37.793 136.329,38.259 133.333 C 38.570 131.340,40.223 129.947,42.278 129.947 C 43.393 129.947,44.135 130.234,44.741 130.899 M156.024 131.886 C 155.883 132.255,155.767 137.683,155.767 143.950 L 155.767 155.344 157.672 155.344 L 159.577 155.344 159.577 151.148 L 159.577 146.953 161.252 146.670 C 162.173 146.514,163.296 146.504,163.747 146.647 C 164.200 146.791,164.824 146.653,165.141 146.340 C 165.456 146.028,166.047 145.647,166.453 145.493 C 169.876 144.197,170.060 135.953,166.729 133.150 C 164.442 131.226,156.631 130.304,156.024 131.886 M175.191 132.381 C 174.684 133.695,172.042 145.637,171.702 148.148 C 171.655 148.497,171.503 148.974,171.365 149.206 C 171.226 149.439,170.975 150.582,170.806 151.746 C 170.637 152.910,170.320 154.196,170.102 154.603 C 169.752 155.257,169.926 155.344,171.588 155.344 L 173.471 155.344 173.750 153.545 C 174.281 150.134,174.130 150.265,177.545 150.265 C 180.917 150.265,181.144 150.455,181.158 153.299 C 181.169 155.381,181.544 155.767,183.557 155.767 L 185.435 155.767 185.149 154.180 C 184.991 153.307,184.697 152.272,184.495 151.880 C 184.292 151.488,184.125 150.535,184.122 149.763 C 184.119 148.991,183.655 146.503,183.090 144.233 C 182.525 141.963,181.934 139.246,181.776 138.196 C 181.618 137.145,181.321 136.182,181.115 136.054 C 180.909 135.927,180.741 135.387,180.741 134.853 C 180.741 131.257,176.375 129.312,175.191 132.381 M189.206 143.492 L 189.206 155.767 190.874 155.767 C 193.075 155.767,192.997 156.041,193.120 147.968 L 193.228 140.928 194.440 143.586 C 195.106 145.047,195.943 146.910,196.298 147.725 C 196.654 148.540,197.379 150.159,197.909 151.323 C 198.439 152.487,199.075 153.963,199.322 154.603 C 199.719 155.635,199.987 155.767,201.684 155.767 L 203.598 155.767 203.598 143.468 L 203.598 131.168 201.799 131.298 L 200.000 131.429 199.569 138.201 C 199.263 143.006,199.030 144.666,198.770 143.915 C 198.428 142.933,197.336 140.505,194.247 133.862 L 193.017 131.217 191.112 131.217 L 189.206 131.217 189.206 143.492 M208.464 132.157 C 208.334 132.688,208.281 138.169,208.347 144.339 L 208.466 155.556 214.180 155.556 L 219.894 155.556 220.026 153.968 L 220.157 152.381 216.110 152.381 L 212.063 152.381 212.063 148.802 L 212.063 145.222 215.132 145.098 L 218.201 144.974 218.332 143.386 L 218.464 141.799 215.264 141.799 L 212.063 141.799 212.063 138.201 L 212.063 134.603 216.110 134.603 L 220.157 134.603 220.026 133.016 L 219.894 131.429 214.297 131.311 C 208.778 131.194,208.696 131.206,208.464 132.157 M224.339 143.480 L 224.339 155.792 229.735 155.674 L 235.132 155.556 235.264 153.968 L 235.395 152.381 231.779 152.381 L 228.163 152.381 228.050 141.905 L 227.937 131.429 226.138 131.298 L 224.339 131.168 224.339 143.480 M247.196 143.492 L 247.196 155.767 250.688 155.765 C 258.350 155.760,260.591 153.793,261.535 146.242 C 262.870 135.559,259.760 131.253,250.688 131.227 L 247.196 131.217 247.196 143.492 M284.021 131.754 C 282.562 132.476,281.058 135.621,281.058 137.947 C 281.058 140.085,284.386 143.851,287.827 145.606 C 289.688 146.556,290.143 147.220,290.492 149.498 C 290.969 152.602,286.189 153.150,284.727 150.159 C 283.646 147.946,280.635 147.716,280.635 149.846 C 280.635 155.147,288.678 157.982,292.597 154.063 L 294.301 152.360 294.050 149.365 C 293.698 145.169,292.652 143.978,286.237 140.473 C 284.024 139.264,284.113 135.453,286.375 134.593 C 287.914 134.008,289.402 134.762,290.125 136.493 C 290.661 137.775,294.180 138.955,294.180 137.853 C 294.180 137.381,292.717 133.452,292.382 133.025 C 291.080 131.363,286.282 130.634,284.021 131.754 M309.920 132.077 C 307.794 133.370,307.301 135.722,307.308 144.520 C 307.316 154.485,308.491 156.543,313.862 156.001 C 315.026 155.884,316.351 155.774,316.806 155.758 C 319.269 155.668,321.010 151.375,320.621 146.349 L 320.333 142.646 316.992 142.646 L 313.651 142.646 313.651 144.339 L 313.651 146.032 315.387 146.032 L 317.123 146.032 316.920 148.572 C 316.659 151.824,316.312 152.219,313.882 152.025 C 311.020 151.798,310.688 150.915,310.688 143.541 C 310.688 135.677,311.101 134.622,314.189 134.610 C 315.872 134.603,316.240 135.033,316.804 137.672 C 317.164 139.356,320.847 139.478,320.847 137.805 C 320.847 132.848,314.298 129.415,309.920 132.077 M265.820 143.704 L 265.820 155.767 271.534 155.767 L 277.249 155.767 277.249 154.074 L 277.249 152.381 273.228 152.381 L 269.206 152.381 269.206 148.783 L 269.206 145.185 272.381 145.185 L 275.556 145.185 275.556 143.492 L 275.556 141.799 272.381 141.799 L 269.206 141.799 269.206 138.201 L 269.206 134.603 273.228 134.603 L 277.249 134.603 277.249 133.122 L 277.249 131.640 271.534 131.640 L 265.820 131.640 265.820 143.704 M298.413 143.704 L 298.413 155.767 300.317 155.767 L 302.222 155.767 302.222 143.704 L 302.222 131.640 300.317 131.640 L 298.413 131.640 298.413 143.704 M325.503 143.681 L 325.503 155.767 327.196 155.767 L 328.889 155.767 328.889 148.325 C 328.889 142.827,329.018 140.925,329.384 141.047 C 329.801 141.186,332.184 146.409,335.312 154.038 C 335.997 155.706,336.090 155.767,337.958 155.767 L 339.894 155.767 339.894 143.704 L 339.894 131.640 337.989 131.640 L 336.085 131.640 335.993 136.402 C 335.942 139.021,335.955 142.497,336.021 144.127 C 336.162 147.618,335.437 147.190,334.198 143.050 C 333.817 141.780,332.582 138.741,331.453 136.296 L 329.401 131.852 327.452 131.723 L 325.503 131.594 325.503 143.681 M344.550 143.704 L 344.550 155.767 350.265 155.767 L 355.979 155.767 355.979 154.286 L 355.979 152.804 352.169 152.804 L 348.360 152.804 348.360 148.995 L 348.360 145.185 351.534 145.185 L 354.709 145.185 354.709 143.704 L 354.709 142.222 351.534 142.222 L 348.360 142.222 348.360 138.640 L 348.360 135.058 352.275 134.937 L 356.190 134.815 356.322 133.228 L 356.453 131.640 350.502 131.640 L 344.550 131.640 344.550 143.704 M360.635 143.704 L 360.635 155.767 362.328 155.767 L 364.021 155.767 364.021 151.111 L 364.021 146.455 365.314 146.455 C 366.695 146.455,367.341 147.527,369.617 153.596 L 370.469 155.869 372.397 155.604 C 374.949 155.255,374.937 155.641,372.575 150.214 L 370.491 145.424 371.489 144.639 C 372.038 144.207,372.487 143.658,372.487 143.419 C 372.487 143.181,372.796 142.333,373.175 141.536 C 375.707 136.198,371.647 131.653,364.339 131.645 L 360.635 131.640 360.635 143.704 M163.630 135.298 C 166.909 137.447,165.276 143.492,161.416 143.492 L 159.577 143.492 159.577 139.048 L 159.577 134.603 161.073 134.603 C 161.896 134.603,163.047 134.916,163.630 135.298 M255.302 135.061 C 256.981 135.959,257.758 138.656,257.768 143.615 C 257.782 150.289,256.515 152.381,252.459 152.381 L 251.005 152.381 251.005 143.492 L 251.005 134.603 252.726 134.603 C 253.673 134.603,254.832 134.809,255.302 135.061 M368.952 136.190 C 371.349 138.773,369.563 143.069,366.091 143.069 L 364.444 143.069 364.444 139.048 L 364.444 135.026 366.158 135.026 C 367.483 135.026,368.116 135.290,368.952 136.190 M74.709 135.930 C 53.474 141.001,46.696 166.309,63.196 178.921 C 64.639 180.024,66.094 181.192,66.428 181.517 C 69.277 184.286,79.548 185.817,85.273 184.325 C 93.471 182.190,101.358 173.772,102.863 165.551 C 103.388 162.683,103.410 155.344,102.894 155.344 C 102.682 155.344,102.378 154.570,102.218 153.624 C 101.400 148.784,94.534 139.970,90.681 138.816 C 89.696 138.520,88.889 138.149,88.889 137.990 C 88.889 136.536,78.495 135.026,74.709 135.930 M178.225 137.037 C 178.398 139.297,178.708 141.403,179.018 142.434 C 179.228 143.132,179.520 144.418,179.666 145.291 L 179.933 146.878 177.741 146.878 L 175.550 146.878 175.831 145.079 C 175.986 144.090,176.278 142.138,176.480 140.741 C 176.948 137.510,178.078 135.111,178.225 137.037 M83.305 141.868 C 84.397 142.139,85.687 142.616,86.171 142.928 C 86.656 143.240,87.179 143.367,87.335 143.211 C 87.491 143.055,87.619 143.182,87.619 143.492 C 87.619 143.802,87.742 143.933,87.892 143.783 C 88.404 143.271,91.463 145.931,93.758 148.884 C 96.997 153.053,98.870 160.555,97.371 163.356 C 97.147 163.774,96.891 164.761,96.801 165.550 C 96.711 166.339,96.228 167.651,95.728 168.466 C 95.227 169.280,94.817 170.239,94.816 170.596 C 94.815 171.307,91.177 174.981,89.011 176.460 C 82.398 180.978,70.408 179.480,64.964 173.457 C 54.677 162.075,60.659 144.397,75.556 142.157 C 81.443 141.272,80.970 141.289,83.305 141.868 M31.425 183.278 C 26.042 186.560,28.264 195.132,34.497 195.132 C 40.812 195.132,43.235 186.119,37.683 183.286 C 35.563 182.205,33.190 182.202,31.425 183.278 M119.956 183.238 C 114.357 186.653,116.748 194.709,123.361 194.709 C 127.333 194.709,129.524 192.512,129.524 188.527 C 129.524 183.892,123.942 180.807,119.956 183.238 "
      fill="#f5f3f0"
      fill-rule="evenodd"
    />
  </g>
</svg>
